REM MD5 241c68b904bd857d0d17445778929dde
FILE "Kattobi Tune (Japan) (Demo).bin" BINARY
  TRACK 01 MODE2/2352
    INDEX 01 00:00:00
  TRACK 02 AUDIO
    INDEX 00 09:06:31
    INDEX 01 09:08:31
  TRACK 03 AUDIO
    INDEX 00 11:27:34
    INDEX 01 11:29:34
REM LEADOUT 14:29:34
